<mxfile host="app.diagrams.net" modified="2021-03-05T15:47:04.213Z" agent="5.0 (Windows NT 10.0; Win64; x64) AppleWebKit/537.36 (KHTML, like Gecko) Chrome/88.0.4324.190 Safari/537.36" etag="ktbQInTbGUdlXgPsJnR2" version="14.4.4" type="github">
  <diagram id="6CeVtnad_4VXsqq0xpX-" name="Page-1">
    <mxGraphModel dx="782" dy="436" grid="1" gridSize="10" guides="1" tooltips="1" connect="1" arrows="1" fold="1" page="1" pageScale="1" pageWidth="850" pageHeight="1100" math="0" shadow="0">
      <root>
        <mxCell id="0" />
        <mxCell id="1" parent="0" />
        <mxCell id="7FcESNxlY9vkVSKCiP2F-46" value="" style="group" vertex="1" connectable="0" parent="1">
          <mxGeometry x="480" y="130" width="310" height="358" as="geometry" />
        </mxCell>
        <mxCell id="7FcESNxlY9vkVSKCiP2F-16" value="" style="group" vertex="1" connectable="0" parent="7FcESNxlY9vkVSKCiP2F-46">
          <mxGeometry width="130" height="200" as="geometry" />
        </mxCell>
        <mxCell id="7FcESNxlY9vkVSKCiP2F-14" value="" style="outlineConnect=0;fontColor=#232F3E;gradientColor=none;fillColor=#D05C17;strokeColor=none;dashed=0;verticalLabelPosition=bottom;verticalAlign=top;align=center;html=1;fontSize=12;fontStyle=0;aspect=fixed;pointerEvents=1;shape=mxgraph.aws4.container_1;" vertex="1" parent="7FcESNxlY9vkVSKCiP2F-16">
          <mxGeometry width="31.2" height="20" as="geometry" />
        </mxCell>
        <mxCell id="7FcESNxlY9vkVSKCiP2F-12" value="" style="rounded=1;arcSize=10;dashed=0;fillColor=none;gradientColor=none;strokeWidth=2;" vertex="1" parent="7FcESNxlY9vkVSKCiP2F-16">
          <mxGeometry y="10" width="100" height="190" as="geometry" />
        </mxCell>
        <mxCell id="7FcESNxlY9vkVSKCiP2F-33" value="App 1" style="rounded=1;whiteSpace=wrap;html=1;" vertex="1" parent="7FcESNxlY9vkVSKCiP2F-16">
          <mxGeometry x="10" y="40" width="80" height="30" as="geometry" />
        </mxCell>
        <mxCell id="7FcESNxlY9vkVSKCiP2F-38" value="dependencies" style="rounded=1;whiteSpace=wrap;html=1;" vertex="1" parent="7FcESNxlY9vkVSKCiP2F-16">
          <mxGeometry x="10" y="90" width="80" height="30" as="geometry" />
        </mxCell>
        <mxCell id="7FcESNxlY9vkVSKCiP2F-39" value="bin/lib" style="rounded=1;whiteSpace=wrap;html=1;" vertex="1" parent="7FcESNxlY9vkVSKCiP2F-16">
          <mxGeometry x="10" y="140" width="80" height="30" as="geometry" />
        </mxCell>
        <mxCell id="7FcESNxlY9vkVSKCiP2F-17" value="" style="group" vertex="1" connectable="0" parent="7FcESNxlY9vkVSKCiP2F-46">
          <mxGeometry x="100" width="102" height="200" as="geometry" />
        </mxCell>
        <mxCell id="7FcESNxlY9vkVSKCiP2F-18" value="" style="outlineConnect=0;fontColor=#232F3E;gradientColor=none;fillColor=#D05C17;strokeColor=none;dashed=0;verticalLabelPosition=bottom;verticalAlign=top;align=center;html=1;fontSize=12;fontStyle=0;aspect=fixed;pointerEvents=1;shape=mxgraph.aws4.container_1;" vertex="1" parent="7FcESNxlY9vkVSKCiP2F-17">
          <mxGeometry width="31.2" height="20" as="geometry" />
        </mxCell>
        <mxCell id="7FcESNxlY9vkVSKCiP2F-19" value="" style="rounded=1;arcSize=10;dashed=0;fillColor=none;gradientColor=none;strokeWidth=2;" vertex="1" parent="7FcESNxlY9vkVSKCiP2F-17">
          <mxGeometry x="5" y="10" width="100" height="190" as="geometry" />
        </mxCell>
        <mxCell id="7FcESNxlY9vkVSKCiP2F-40" value="App 2" style="rounded=1;whiteSpace=wrap;html=1;" vertex="1" parent="7FcESNxlY9vkVSKCiP2F-17">
          <mxGeometry x="15" y="42" width="80" height="30" as="geometry" />
        </mxCell>
        <mxCell id="7FcESNxlY9vkVSKCiP2F-41" value="dependencies" style="rounded=1;whiteSpace=wrap;html=1;" vertex="1" parent="7FcESNxlY9vkVSKCiP2F-17">
          <mxGeometry x="15" y="92" width="80" height="30" as="geometry" />
        </mxCell>
        <mxCell id="7FcESNxlY9vkVSKCiP2F-42" value="bin/lib" style="rounded=1;whiteSpace=wrap;html=1;" vertex="1" parent="7FcESNxlY9vkVSKCiP2F-17">
          <mxGeometry x="15" y="142" width="80" height="30" as="geometry" />
        </mxCell>
        <mxCell id="7FcESNxlY9vkVSKCiP2F-20" value="" style="group" vertex="1" connectable="0" parent="7FcESNxlY9vkVSKCiP2F-46">
          <mxGeometry x="210" width="100" height="200" as="geometry" />
        </mxCell>
        <mxCell id="7FcESNxlY9vkVSKCiP2F-21" value="" style="outlineConnect=0;fontColor=#232F3E;gradientColor=none;fillColor=#D05C17;strokeColor=none;dashed=0;verticalLabelPosition=bottom;verticalAlign=top;align=center;html=1;fontSize=12;fontStyle=0;aspect=fixed;pointerEvents=1;shape=mxgraph.aws4.container_1;" vertex="1" parent="7FcESNxlY9vkVSKCiP2F-20">
          <mxGeometry width="31.2" height="20" as="geometry" />
        </mxCell>
        <mxCell id="7FcESNxlY9vkVSKCiP2F-22" value="" style="rounded=1;arcSize=10;dashed=0;fillColor=none;gradientColor=none;strokeWidth=2;" vertex="1" parent="7FcESNxlY9vkVSKCiP2F-20">
          <mxGeometry y="10" width="100" height="190" as="geometry" />
        </mxCell>
        <mxCell id="7FcESNxlY9vkVSKCiP2F-43" value="App 3" style="rounded=1;whiteSpace=wrap;html=1;" vertex="1" parent="7FcESNxlY9vkVSKCiP2F-20">
          <mxGeometry x="10" y="43" width="80" height="30" as="geometry" />
        </mxCell>
        <mxCell id="7FcESNxlY9vkVSKCiP2F-44" value="dependencies" style="rounded=1;whiteSpace=wrap;html=1;" vertex="1" parent="7FcESNxlY9vkVSKCiP2F-20">
          <mxGeometry x="10" y="93" width="80" height="30" as="geometry" />
        </mxCell>
        <mxCell id="7FcESNxlY9vkVSKCiP2F-45" value="bin/lib" style="rounded=1;whiteSpace=wrap;html=1;" vertex="1" parent="7FcESNxlY9vkVSKCiP2F-20">
          <mxGeometry x="10" y="143" width="80" height="30" as="geometry" />
        </mxCell>
        <mxCell id="7FcESNxlY9vkVSKCiP2F-25" value="" style="group;" vertex="1" connectable="0" parent="7FcESNxlY9vkVSKCiP2F-46">
          <mxGeometry y="314" width="310" height="44" as="geometry" />
        </mxCell>
        <mxCell id="7FcESNxlY9vkVSKCiP2F-1" value="Infrastructure" style="rounded=1;whiteSpace=wrap;html=1;" vertex="1" parent="7FcESNxlY9vkVSKCiP2F-25">
          <mxGeometry width="310" height="44" as="geometry" />
        </mxCell>
        <mxCell id="7FcESNxlY9vkVSKCiP2F-6" value="" style="shape=image;html=1;verticalAlign=top;verticalLabelPosition=bottom;labelBackgroundColor=#ffffff;imageAspect=0;aspect=fixed;image=https://cdn2.iconfinder.com/data/icons/whcompare-isometric-web-hosting-servers/50/rack-mount-server-128.png" vertex="1" parent="7FcESNxlY9vkVSKCiP2F-25">
          <mxGeometry width="44" height="44" as="geometry" />
        </mxCell>
        <mxCell id="7FcESNxlY9vkVSKCiP2F-26" value="" style="group" vertex="1" connectable="0" parent="7FcESNxlY9vkVSKCiP2F-46">
          <mxGeometry y="263" width="310" height="42" as="geometry" />
        </mxCell>
        <mxCell id="7FcESNxlY9vkVSKCiP2F-2" value="Host OS" style="rounded=1;whiteSpace=wrap;html=1;" vertex="1" parent="7FcESNxlY9vkVSKCiP2F-26">
          <mxGeometry width="310.00000000000006" height="40" as="geometry" />
        </mxCell>
        <mxCell id="7FcESNxlY9vkVSKCiP2F-5" value="" style="shape=image;html=1;verticalAlign=top;verticalLabelPosition=bottom;labelBackgroundColor=#ffffff;imageAspect=0;aspect=fixed;image=https://cdn1.iconfinder.com/data/icons/social-media-vol-3/24/_windows-17-128.png" vertex="1" parent="7FcESNxlY9vkVSKCiP2F-26">
          <mxGeometry x="10.333333333333334" y="2" width="40" height="40" as="geometry" />
        </mxCell>
        <mxCell id="7FcESNxlY9vkVSKCiP2F-10" value="" style="aspect=fixed;perimeter=ellipsePerimeter;html=1;align=center;fontSize=12;verticalAlign=top;fontColor=#364149;shadow=0;dashed=0;image;image=img/lib/cumulus/cumulus_linux_icon.svg;" vertex="1" parent="7FcESNxlY9vkVSKCiP2F-26">
          <mxGeometry x="62.00000000000001" y="7" width="30" height="30" as="geometry" />
        </mxCell>
        <mxCell id="7FcESNxlY9vkVSKCiP2F-27" value="" style="group;" vertex="1" connectable="0" parent="7FcESNxlY9vkVSKCiP2F-46">
          <mxGeometry y="210" width="310" height="40" as="geometry" />
        </mxCell>
        <mxCell id="7FcESNxlY9vkVSKCiP2F-3" value="Docker" style="rounded=1;whiteSpace=wrap;html=1;" vertex="1" parent="7FcESNxlY9vkVSKCiP2F-27">
          <mxGeometry width="310.00000000000006" height="44" as="geometry" />
        </mxCell>
        <mxCell id="7FcESNxlY9vkVSKCiP2F-9" value="" style="shape=image;html=1;verticalAlign=top;verticalLabelPosition=bottom;labelBackgroundColor=#ffffff;imageAspect=0;aspect=fixed;image=https://cdn3.iconfinder.com/data/icons/social-media-2169/24/social_media_social_media_logo_docker-128.png" vertex="1" parent="7FcESNxlY9vkVSKCiP2F-27">
          <mxGeometry x="12.400000000000002" width="38" height="38" as="geometry" />
        </mxCell>
        <mxCell id="7FcESNxlY9vkVSKCiP2F-105" value="" style="group" vertex="1" connectable="0" parent="1">
          <mxGeometry x="20" y="153" width="350" height="298" as="geometry" />
        </mxCell>
        <mxCell id="7FcESNxlY9vkVSKCiP2F-47" value="" style="group" vertex="1" connectable="0" parent="7FcESNxlY9vkVSKCiP2F-105">
          <mxGeometry y="2" width="130" height="200" as="geometry" />
        </mxCell>
        <mxCell id="7FcESNxlY9vkVSKCiP2F-48" value="" style="outlineConnect=0;fontColor=#232F3E;gradientColor=none;fillColor=#D05C17;strokeColor=none;dashed=0;verticalLabelPosition=bottom;verticalAlign=top;align=center;html=1;fontSize=12;fontStyle=0;aspect=fixed;pointerEvents=1;shape=mxgraph.aws4.container_1;" vertex="1" parent="7FcESNxlY9vkVSKCiP2F-47">
          <mxGeometry width="31.2" height="20" as="geometry" />
        </mxCell>
        <mxCell id="7FcESNxlY9vkVSKCiP2F-49" value="" style="rounded=1;arcSize=10;dashed=0;fillColor=none;gradientColor=none;strokeWidth=2;" vertex="1" parent="7FcESNxlY9vkVSKCiP2F-47">
          <mxGeometry y="10" width="100" height="190" as="geometry" />
        </mxCell>
        <mxCell id="7FcESNxlY9vkVSKCiP2F-50" value="App 1" style="rounded=1;whiteSpace=wrap;html=1;" vertex="1" parent="7FcESNxlY9vkVSKCiP2F-47">
          <mxGeometry x="10" y="40" width="80" height="30" as="geometry" />
        </mxCell>
        <mxCell id="7FcESNxlY9vkVSKCiP2F-51" value="dependencies" style="rounded=1;whiteSpace=wrap;html=1;" vertex="1" parent="7FcESNxlY9vkVSKCiP2F-47">
          <mxGeometry x="10" y="90" width="80" height="30" as="geometry" />
        </mxCell>
        <mxCell id="7FcESNxlY9vkVSKCiP2F-52" value="bin/lib" style="rounded=1;whiteSpace=wrap;html=1;" vertex="1" parent="7FcESNxlY9vkVSKCiP2F-47">
          <mxGeometry x="10" y="140" width="80" height="30" as="geometry" />
        </mxCell>
        <mxCell id="7FcESNxlY9vkVSKCiP2F-53" value="" style="group" vertex="1" connectable="0" parent="7FcESNxlY9vkVSKCiP2F-105">
          <mxGeometry x="120" y="2" width="102" height="200" as="geometry" />
        </mxCell>
        <mxCell id="7FcESNxlY9vkVSKCiP2F-54" value="" style="outlineConnect=0;fontColor=#232F3E;gradientColor=none;fillColor=#D05C17;strokeColor=none;dashed=0;verticalLabelPosition=bottom;verticalAlign=top;align=center;html=1;fontSize=12;fontStyle=0;aspect=fixed;pointerEvents=1;shape=mxgraph.aws4.container_1;" vertex="1" parent="7FcESNxlY9vkVSKCiP2F-53">
          <mxGeometry width="31.2" height="20" as="geometry" />
        </mxCell>
        <mxCell id="7FcESNxlY9vkVSKCiP2F-55" value="" style="rounded=1;arcSize=10;dashed=0;fillColor=none;gradientColor=none;strokeWidth=2;" vertex="1" parent="7FcESNxlY9vkVSKCiP2F-53">
          <mxGeometry x="5" y="10" width="100" height="190" as="geometry" />
        </mxCell>
        <mxCell id="7FcESNxlY9vkVSKCiP2F-56" value="App 2" style="rounded=1;whiteSpace=wrap;html=1;" vertex="1" parent="7FcESNxlY9vkVSKCiP2F-53">
          <mxGeometry x="15" y="42" width="80" height="30" as="geometry" />
        </mxCell>
        <mxCell id="7FcESNxlY9vkVSKCiP2F-57" value="dependencies" style="rounded=1;whiteSpace=wrap;html=1;" vertex="1" parent="7FcESNxlY9vkVSKCiP2F-53">
          <mxGeometry x="15" y="92" width="80" height="30" as="geometry" />
        </mxCell>
        <mxCell id="7FcESNxlY9vkVSKCiP2F-58" value="bin/lib" style="rounded=1;whiteSpace=wrap;html=1;" vertex="1" parent="7FcESNxlY9vkVSKCiP2F-53">
          <mxGeometry x="15" y="142" width="80" height="30" as="geometry" />
        </mxCell>
        <mxCell id="7FcESNxlY9vkVSKCiP2F-59" value="" style="group" vertex="1" connectable="0" parent="7FcESNxlY9vkVSKCiP2F-105">
          <mxGeometry x="250" width="100" height="200" as="geometry" />
        </mxCell>
        <mxCell id="7FcESNxlY9vkVSKCiP2F-60" value="" style="outlineConnect=0;fontColor=#232F3E;gradientColor=none;fillColor=#D05C17;strokeColor=none;dashed=0;verticalLabelPosition=bottom;verticalAlign=top;align=center;html=1;fontSize=12;fontStyle=0;aspect=fixed;pointerEvents=1;shape=mxgraph.aws4.container_1;" vertex="1" parent="7FcESNxlY9vkVSKCiP2F-59">
          <mxGeometry width="31.2" height="20" as="geometry" />
        </mxCell>
        <mxCell id="7FcESNxlY9vkVSKCiP2F-61" value="" style="rounded=1;arcSize=10;dashed=0;fillColor=none;gradientColor=none;strokeWidth=2;" vertex="1" parent="7FcESNxlY9vkVSKCiP2F-59">
          <mxGeometry y="10" width="100" height="190" as="geometry" />
        </mxCell>
        <mxCell id="7FcESNxlY9vkVSKCiP2F-62" value="App 3" style="rounded=1;whiteSpace=wrap;html=1;" vertex="1" parent="7FcESNxlY9vkVSKCiP2F-59">
          <mxGeometry x="10" y="43" width="80" height="30" as="geometry" />
        </mxCell>
        <mxCell id="7FcESNxlY9vkVSKCiP2F-63" value="dependencies" style="rounded=1;whiteSpace=wrap;html=1;" vertex="1" parent="7FcESNxlY9vkVSKCiP2F-59">
          <mxGeometry x="10" y="93" width="80" height="30" as="geometry" />
        </mxCell>
        <mxCell id="7FcESNxlY9vkVSKCiP2F-64" value="bin/lib" style="rounded=1;whiteSpace=wrap;html=1;" vertex="1" parent="7FcESNxlY9vkVSKCiP2F-59">
          <mxGeometry x="10" y="143" width="80" height="30" as="geometry" />
        </mxCell>
        <mxCell id="7FcESNxlY9vkVSKCiP2F-65" value="" style="group" vertex="1" connectable="0" parent="7FcESNxlY9vkVSKCiP2F-105">
          <mxGeometry y="207" width="100" height="42" as="geometry" />
        </mxCell>
        <mxCell id="7FcESNxlY9vkVSKCiP2F-66" value="Host OS" style="rounded=1;whiteSpace=wrap;html=1;" vertex="1" parent="7FcESNxlY9vkVSKCiP2F-65">
          <mxGeometry width="100.00000000000003" height="40" as="geometry" />
        </mxCell>
        <mxCell id="7FcESNxlY9vkVSKCiP2F-67" value="" style="shape=image;html=1;verticalAlign=top;verticalLabelPosition=bottom;labelBackgroundColor=#ffffff;imageAspect=0;aspect=fixed;image=https://cdn1.iconfinder.com/data/icons/social-media-vol-3/24/_windows-17-128.png" vertex="1" parent="7FcESNxlY9vkVSKCiP2F-65">
          <mxGeometry x="3.333333333333334" y="2" width="12.903225806451614" height="12.903225806451614" as="geometry" />
        </mxCell>
        <mxCell id="7FcESNxlY9vkVSKCiP2F-68" value="" style="aspect=fixed;perimeter=ellipsePerimeter;html=1;align=center;fontSize=12;verticalAlign=top;fontColor=#364149;shadow=0;dashed=0;image;image=img/lib/cumulus/cumulus_linux_icon.svg;" vertex="1" parent="7FcESNxlY9vkVSKCiP2F-65">
          <mxGeometry x="20" y="7" width="9.677419354838712" height="9.677419354838712" as="geometry" />
        </mxCell>
        <mxCell id="7FcESNxlY9vkVSKCiP2F-72" value="" style="group;" vertex="1" connectable="0" parent="7FcESNxlY9vkVSKCiP2F-105">
          <mxGeometry y="254" width="100" height="44" as="geometry" />
        </mxCell>
        <mxCell id="7FcESNxlY9vkVSKCiP2F-73" value="Infrastructure" style="rounded=1;whiteSpace=wrap;html=1;" vertex="1" parent="7FcESNxlY9vkVSKCiP2F-72">
          <mxGeometry width="100" height="44" as="geometry" />
        </mxCell>
        <mxCell id="7FcESNxlY9vkVSKCiP2F-74" value="" style="shape=image;html=1;verticalAlign=top;verticalLabelPosition=bottom;labelBackgroundColor=#ffffff;imageAspect=0;aspect=fixed;image=https://cdn2.iconfinder.com/data/icons/whcompare-isometric-web-hosting-servers/50/rack-mount-server-128.png" vertex="1" parent="7FcESNxlY9vkVSKCiP2F-72">
          <mxGeometry width="14.193548387096776" height="14.193548387096776" as="geometry" />
        </mxCell>
        <mxCell id="7FcESNxlY9vkVSKCiP2F-91" value="" style="group" vertex="1" connectable="0" parent="7FcESNxlY9vkVSKCiP2F-105">
          <mxGeometry x="122" y="207" width="100" height="42" as="geometry" />
        </mxCell>
        <mxCell id="7FcESNxlY9vkVSKCiP2F-92" value="Host OS" style="rounded=1;whiteSpace=wrap;html=1;" vertex="1" parent="7FcESNxlY9vkVSKCiP2F-91">
          <mxGeometry width="100.00000000000003" height="40" as="geometry" />
        </mxCell>
        <mxCell id="7FcESNxlY9vkVSKCiP2F-93" value="" style="shape=image;html=1;verticalAlign=top;verticalLabelPosition=bottom;labelBackgroundColor=#ffffff;imageAspect=0;aspect=fixed;image=https://cdn1.iconfinder.com/data/icons/social-media-vol-3/24/_windows-17-128.png" vertex="1" parent="7FcESNxlY9vkVSKCiP2F-91">
          <mxGeometry x="3.333333333333334" y="2" width="12.903225806451614" height="12.903225806451614" as="geometry" />
        </mxCell>
        <mxCell id="7FcESNxlY9vkVSKCiP2F-94" value="" style="aspect=fixed;perimeter=ellipsePerimeter;html=1;align=center;fontSize=12;verticalAlign=top;fontColor=#364149;shadow=0;dashed=0;image;image=img/lib/cumulus/cumulus_linux_icon.svg;" vertex="1" parent="7FcESNxlY9vkVSKCiP2F-91">
          <mxGeometry x="20" y="7" width="9.677419354838712" height="9.677419354838712" as="geometry" />
        </mxCell>
        <mxCell id="7FcESNxlY9vkVSKCiP2F-95" value="" style="group;" vertex="1" connectable="0" parent="7FcESNxlY9vkVSKCiP2F-105">
          <mxGeometry x="122" y="254" width="100" height="44" as="geometry" />
        </mxCell>
        <mxCell id="7FcESNxlY9vkVSKCiP2F-96" value="Infrastructure" style="rounded=1;whiteSpace=wrap;html=1;" vertex="1" parent="7FcESNxlY9vkVSKCiP2F-95">
          <mxGeometry width="100" height="44" as="geometry" />
        </mxCell>
        <mxCell id="7FcESNxlY9vkVSKCiP2F-97" value="" style="shape=image;html=1;verticalAlign=top;verticalLabelPosition=bottom;labelBackgroundColor=#ffffff;imageAspect=0;aspect=fixed;image=https://cdn2.iconfinder.com/data/icons/whcompare-isometric-web-hosting-servers/50/rack-mount-server-128.png" vertex="1" parent="7FcESNxlY9vkVSKCiP2F-95">
          <mxGeometry width="14.193548387096776" height="14.193548387096776" as="geometry" />
        </mxCell>
        <mxCell id="7FcESNxlY9vkVSKCiP2F-98" value="" style="group" vertex="1" connectable="0" parent="7FcESNxlY9vkVSKCiP2F-105">
          <mxGeometry x="248" y="207" width="100" height="42" as="geometry" />
        </mxCell>
        <mxCell id="7FcESNxlY9vkVSKCiP2F-99" value="Host OS" style="rounded=1;whiteSpace=wrap;html=1;" vertex="1" parent="7FcESNxlY9vkVSKCiP2F-98">
          <mxGeometry width="100.00000000000003" height="40" as="geometry" />
        </mxCell>
        <mxCell id="7FcESNxlY9vkVSKCiP2F-100" value="" style="shape=image;html=1;verticalAlign=top;verticalLabelPosition=bottom;labelBackgroundColor=#ffffff;imageAspect=0;aspect=fixed;image=https://cdn1.iconfinder.com/data/icons/social-media-vol-3/24/_windows-17-128.png" vertex="1" parent="7FcESNxlY9vkVSKCiP2F-98">
          <mxGeometry x="3.333333333333334" y="2" width="12.903225806451614" height="12.903225806451614" as="geometry" />
        </mxCell>
        <mxCell id="7FcESNxlY9vkVSKCiP2F-101" value="" style="aspect=fixed;perimeter=ellipsePerimeter;html=1;align=center;fontSize=12;verticalAlign=top;fontColor=#364149;shadow=0;dashed=0;image;image=img/lib/cumulus/cumulus_linux_icon.svg;" vertex="1" parent="7FcESNxlY9vkVSKCiP2F-98">
          <mxGeometry x="20" y="7" width="9.677419354838712" height="9.677419354838712" as="geometry" />
        </mxCell>
        <mxCell id="7FcESNxlY9vkVSKCiP2F-102" value="" style="group;" vertex="1" connectable="0" parent="7FcESNxlY9vkVSKCiP2F-105">
          <mxGeometry x="248" y="254" width="100" height="44" as="geometry" />
        </mxCell>
        <mxCell id="7FcESNxlY9vkVSKCiP2F-103" value="Infrastructure" style="rounded=1;whiteSpace=wrap;html=1;" vertex="1" parent="7FcESNxlY9vkVSKCiP2F-102">
          <mxGeometry width="100" height="44" as="geometry" />
        </mxCell>
        <mxCell id="7FcESNxlY9vkVSKCiP2F-104" value="" style="shape=image;html=1;verticalAlign=top;verticalLabelPosition=bottom;labelBackgroundColor=#ffffff;imageAspect=0;aspect=fixed;image=https://cdn2.iconfinder.com/data/icons/whcompare-isometric-web-hosting-servers/50/rack-mount-server-128.png" vertex="1" parent="7FcESNxlY9vkVSKCiP2F-102">
          <mxGeometry width="14.193548387096776" height="14.193548387096776" as="geometry" />
        </mxCell>
        <mxCell id="7FcESNxlY9vkVSKCiP2F-106" value="" style="shape=flexArrow;endArrow=classic;html=1;" edge="1" parent="1">
          <mxGeometry width="50" height="50" relative="1" as="geometry">
            <mxPoint x="384" y="310" as="sourcePoint" />
            <mxPoint x="450" y="310" as="targetPoint" />
          </mxGeometry>
        </mxCell>
      </root>
    </mxGraphModel>
  </diagram>
</mxfile>
